<?xml version="1.0" encoding="UTF-8" standalone="no"?>
<!-- Created with Inkscape (http://www.inkscape.org/) -->

<svg
   xmlns:dc="http://purl.org/dc/elements/1.1/"
   xmlns:cc="http://creativecommons.org/ns#"
   xmlns:rdf="http://www.w3.org/1999/02/22-rdf-syntax-ns#"
   xmlns:svg="http://www.w3.org/2000/svg"
   xmlns="http://www.w3.org/2000/svg"
   xmlns:sodipodi="http://sodipodi.sourceforge.net/DTD/sodipodi-0.dtd"
   xmlns:inkscape="http://www.inkscape.org/namespaces/inkscape"
   id="svg2"
   version="1.1"
   inkscape:version="0.92.1 r15371"
   xml:space="preserve"
   width="208.21751mm"
   height="32.931858mm"
   viewBox="0 0 737.7786 116.68768"
   sodipodi:docname="Sync_time_series.svg"
   inkscape:export-filename="/home/ajoshi/coding_ground/cortical_parcellation/docs/papers/figs/Sync_time_series.svg.png"
   inkscape:export-xdpi="200"
   inkscape:export-ydpi="200"><metadata
     id="metadata8"><rdf:RDF><cc:Work
         rdf:about=""><dc:format>image/svg+xml</dc:format><dc:type
           rdf:resource="http://purl.org/dc/dcmitype/StillImage" /><dc:title /></cc:Work></rdf:RDF></metadata><defs
     id="defs6"><clipPath
       clipPathUnits="userSpaceOnUse"
       id="clipPath20"><path
         d="m 90,9 558,0 0,55.8 -558,0 L 90,9 Z"
         id="path22"
         inkscape:connector-curvature="0" /></clipPath><clipPath
       clipPathUnits="userSpaceOnUse"
       id="clipPath30"><path
         d="m 90,9 558,0 0,55.8 -558,0 L 90,9 Z"
         id="path32"
         inkscape:connector-curvature="0" /></clipPath><clipPath
       clipPathUnits="userSpaceOnUse"
       id="clipPath40"><path
         d="m 90,9 558,0 0,55.8 -558,0 L 90,9 Z"
         id="path42"
         inkscape:connector-curvature="0" /></clipPath><clipPath
       clipPathUnits="userSpaceOnUse"
       id="clipPath120"><path
         d="m -184,-236 1472,0 0,1165 -1472,0 0,-1165 z"
         id="path122"
         inkscape:connector-curvature="0" /></clipPath><clipPath
       clipPathUnits="userSpaceOnUse"
       id="clipPath142"><path
         d="m -184,-236 1472,0 0,1165 -1472,0 0,-1165 z"
         id="path144"
         inkscape:connector-curvature="0" /></clipPath><clipPath
       clipPathUnits="userSpaceOnUse"
       id="clipPath164"><path
         d="m -184,-236 1472,0 0,1165 -1472,0 0,-1165 z"
         id="path166"
         inkscape:connector-curvature="0" /></clipPath></defs><sodipodi:namedview
     pagecolor="#ffffff"
     bordercolor="#666666"
     borderopacity="1"
     objecttolerance="10"
     gridtolerance="10"
     guidetolerance="10"
     inkscape:pageopacity="0"
     inkscape:pageshadow="2"
     inkscape:window-width="1900"
     inkscape:window-height="1163"
     id="namedview4"
     showgrid="false"
     inkscape:zoom="1.1250855"
     inkscape:cx="514.43554"
     inkscape:cy="80.326669"
     inkscape:window-x="0"
     inkscape:window-y="0"
     inkscape:window-maximized="1"
     inkscape:current-layer="g10"
     fit-margin-left="1"
     fit-margin-top="1"
     fit-margin-right="1"
     fit-margin-bottom="1"
     units="mm" /><g
     id="g10"
     inkscape:groupmode="layer"
     inkscape:label="Sync_time_series"
     transform="matrix(1.25,0,0,-1.25,-86.863724,105.84191)"><path
       d="m 90,9 558,0 0,55.8 -558,0 L 90,9 Z"
       style="fill:#ffffff;fill-opacity:1;fill-rule:nonzero;stroke:none"
       id="path14"
       inkscape:connector-curvature="0" /><g
       id="g16"><g
         id="g18"
         clip-path="url(#clipPath20)"><path
           d="m 90,38.459969 5.58,-0.575541 5.58,8.923864 5.58,-10.762592 5.58,-11.173887 5.58,25.174824 5.58,-15.175211 5.58,26.279861 5.58,-16.526676 5.58,-9.462904 5.58,15.129802 5.58,4.012278 5.58,-25.73635 5.58,9.243245 5.58,7.848118 5.58,5.726813 5.58,-10.019577 5.58,-13.394967 5.58,-3.156611 5.58,-0.481225 5.58,25.256214 5.58,-20.366516 5.58,-15.142226 5.58,32.793982 5.58,-7.387327 5.58,-8.459525 5.58,-0.387433 5.58,-2.772462 5.58,2.066342 5.58,-15.024727 5.58,10.309242 5.58,24.171711 5.58,-19.190082 5.58,14.524308 5.58,-7.146013 5.58,4.408981 5.58,-16.158931 5.58,29.323999 5.58,-31.963635 5.58,21.425357 5.58,-14.74671 5.58,12.350136 5.58,2.127134 5.58,9.271442 5.58,-10.20392 5.58,-11.706329 5.58,-20.627975 5.58,31.244656 5.58,6.8086 5.58,-17.684456 5.58,20.226832 5.58,-16.525863 5.58,0.977933 5.58,16.732395 5.58,-6.272263 5.58,-14.031865 5.58,6.811045 5.58,-12.434682 5.58,-2.389724 5.58,9.461612 5.58,-5.021239 5.58,-2.756406 5.58,20.671483 5.58,-23.306154 5.58,14.810528 5.58,-16.12131 5.58,0.028 5.58,13.390576 5.58,3.941223 5.58,-8.292035 5.58,-2.69572 5.58,-17.403692 5.58,27.498766 5.58,2.584342 5.58,-12.429984 5.58,10.977543 5.58,0.667448 5.58,-18.005983 5.58,0.08617 5.58,11.600304 5.58,-5.340096 5.58,8.92049 5.58,-7.457105 5.58,2.774077 5.58,-11.19828 5.58,6.90295 5.58,11.062582 5.58,-0.880323 5.58,-18.60811 5.58,24.428849 5.58,-27.69082 5.58,21.075183 5.58,2.577879 5.58,-1.960458 5.58,0.675992 5.58,-17.909984 5.58,17.003825 5.58,1.240885 5.58,5.009379 5.58,-7.836306"
           style="fill:none;stroke:#0000ff;stroke-width:1;stroke-linecap:square;stroke-linejoin:round;stroke-miterlimit:10;stroke-dasharray:none;stroke-opacity:1"
           id="path24"
           inkscape:connector-curvature="0" /></g></g><g
       id="g26"><g
         id="g28"
         clip-path="url(#clipPath30)"><path
           d="m 90,42.691858 5.58,5.44274 5.58,-27.264539 5.58,17.844187 5.58,-5.331276 5.58,10.182403 5.58,10.485772 5.58,-12.874402 5.58,-6.924004 5.58,1.95239 5.58,7.331459 5.58,7.815027 5.58,-10.161642 5.58,12.979042 5.58,-5.243509 5.58,-19.096039 5.58,7.03964 5.58,9.368239 5.58,-14.299429 5.58,5.048787 5.58,6.400056 5.58,-3.912095 5.58,8.187001 5.58,-12.998332 5.58,3.635276 5.58,9.632251 5.58,-21.49438 5.58,1.963547 5.58,-0.09958 5.58,5.876907 5.58,13.53357 5.58,-23.686442 5.58,22.586085 5.58,-1.567666 5.58,-16.942436 5.58,12.225349 5.58,-19.579641 5.58,1.175859 5.58,-1.061711 5.58,9.783361 5.58,3.759063 5.58,10.140472 5.58,-28.178977 5.58,14.762412 5.58,10.707203 5.58,-8.477595 5.58,3.036174 5.58,2.964417 5.58,-0.622557 5.58,-1.052423 5.58,-3.786761 5.58,-8.603968 5.58,-1.452502 5.58,37.929712 5.58,-28.66903 5.58,-3.897326 5.58,12.508778 5.58,-16.235039 5.58,16.28625 5.58,-6.038459 5.58,-10.751435 5.58,15.33556 5.58,4.010812 5.58,-6.893597 5.58,-12.148284 5.58,19.072945 5.58,-24.502096 5.58,14.490314 5.58,-2.618619 5.58,14.90475 5.58,4.382198 5.58,-21.836477 5.58,14.32595 5.58,-6.727679 5.58,-8.465866 5.58,-0.679766 5.58,-4.292767 5.58,24.69195 5.58,-2.039818 5.58,-17.312872 5.58,8.721665 5.58,-8.224879 5.58,5.354367 5.58,-2.475751 5.58,11.809117 5.58,-14.003659 5.58,-1.779387 5.58,11.654996 5.58,-0.06697 5.58,0.785971 5.58,9.35631 5.58,-4.417867 5.58,-15.303173 5.58,10.225634 5.58,10.335977 5.58,-21.836581 5.58,10.088256 5.58,1.606805 5.58,-5.816399 5.58,7.317853"
           style="fill:none;stroke:#008000;stroke-width:1;stroke-linecap:square;stroke-linejoin:round;stroke-miterlimit:10;stroke-dasharray:none;stroke-opacity:1"
           id="path34"
           inkscape:connector-curvature="0" /></g></g><g
       id="g36"><g
         id="g38"
         clip-path="url(#clipPath40)"><path
           d="m 90,31.817676 5.58,5.822803 5.58,8.412989 5.58,-4.045843 5.58,-2.79186 5.58,6.723529 5.58,-15.478171 5.58,32.802437 5.58,-18.322376 5.58,-6.402965 5.58,4.390106 5.58,7.365436 5.58,-12.777357 5.58,-7.21372 5.58,17.565505 5.58,-2.057298 5.58,-8.431287 5.58,-4.816112 5.58,4.329065 5.58,-6.087555 5.58,18.294202 5.58,-14.763312 5.58,-13.527711 5.58,26.462434 5.58,-8.392684 5.58,11.192292 5.58,-17.941185 5.58,-8.62067 5.58,14.004714 5.58,-23.172833 5.58,5.551314 5.58,30.702902 5.58,-16.835294 5.58,7.556637 5.58,-6.832131 5.58,2.757785 5.58,-15.535619 5.58,35.056011 5.58,-30.106631 5.58,13.558757 5.58,-1.423405 5.58,-1.57015 5.58,11.298757 5.58,-0.810518 5.58,-3.052118 5.58,-16.925497 5.58,-13.385027 5.58,29.135137 5.58,3.256479 5.58,-13.709654 5.58,14.356734 5.58,-12.605621 5.58,6.322933 5.58,6.782664 5.58,-12.198867 5.58,-8.876667 5.58,11.01322 5.58,-12.896215 5.58,1.208312 5.58,9.607797 5.58,-7.856854 5.58,-9.508868 5.58,33.377812 5.58,-23.568205 5.58,8.412353 5.58,-10.653022 5.58,2.224432 5.58,5.717262 5.58,1.758869 5.58,-2.999069 5.58,3.885202 5.58,-18.215315 5.58,14.740834 5.58,16.101329 5.58,-15.141974 5.58,1.694723 5.58,10.67537 5.58,-30.74856 5.58,9.483508 5.58,8.947377 5.58,-3.279543 5.58,8.620756 5.58,-11.375542 5.58,1.045039 5.58,-0.736121 5.58,0.611718 5.58,15.969445 5.58,0.258375 5.58,-19.630803 5.58,14.107849 5.58,-29.642134 5.58,22.66968 5.58,0.905781 5.58,9.44128 5.58,0.393532 5.58,-18.929083 5.58,17.864273 5.58,-0.271824 5.58,-0.162658 5.58,-7.582165"
           style="fill:none;stroke:#ff0000;stroke-width:1;stroke-linecap:square;stroke-linejoin:round;stroke-miterlimit:10;stroke-dasharray:none;stroke-opacity:1"
           id="path44"
           inkscape:connector-curvature="0" /></g></g><path
       inkscape:connector-curvature="0"
       id="path48"
       style="fill:none;stroke:#000000;stroke-width:1;stroke-linecap:square;stroke-linejoin:miter;stroke-miterlimit:10;stroke-dasharray:none;stroke-opacity:1"
       d="m 90,64.8 558,0" /><path
       inkscape:connector-curvature="0"
       id="path50"
       style="fill:none;stroke:#000000;stroke-width:1;stroke-linecap:square;stroke-linejoin:miter;stroke-miterlimit:10;stroke-dasharray:none;stroke-opacity:1"
       d="m 648,9 0,55.8" /><path
       inkscape:connector-curvature="0"
       id="path52"
       style="fill:none;stroke:#000000;stroke-width:1;stroke-linecap:square;stroke-linejoin:miter;stroke-miterlimit:10;stroke-dasharray:none;stroke-opacity:1"
       d="M 90,9 648,9" /><path
       inkscape:connector-curvature="0"
       id="path54"
       style="fill:none;stroke:#000000;stroke-width:1;stroke-linecap:square;stroke-linejoin:miter;stroke-miterlimit:10;stroke-dasharray:none;stroke-opacity:1"
       d="m 90,9 0,55.8" /><path
       inkscape:connector-curvature="0"
       id="path56"
       style="fill:#000000;fill-opacity:1;fill-rule:nonzero;stroke:#000000;stroke-width:0.5;stroke-linecap:butt;stroke-linejoin:round;stroke-miterlimit:10;stroke-dasharray:none;stroke-opacity:1"
       d="m 90,9 0,4" /><path
       inkscape:connector-curvature="0"
       id="path58"
       style="fill:#000000;fill-opacity:1;fill-rule:nonzero;stroke:#000000;stroke-width:0.5;stroke-linecap:butt;stroke-linejoin:round;stroke-miterlimit:10;stroke-dasharray:none;stroke-opacity:1"
       d="m 90,64.8 0,-4" /><text
       id="text60"
       style="font-variant:normal;font-weight:normal;font-size:10px;line-height:0%;font-family:'Bitstream Vera Sans';-inkscape-font-specification:BitstreamVeraSans-Roman;writing-mode:lr-tb;fill:#000000;fill-opacity:1;fill-rule:nonzero;stroke:none"
       transform="scale(1,-1)"
       x="86.820312"
       y="2.59375"><tspan
         id="tspan62"
         y="2.59375"
         x="86.820312">0</tspan></text>
<path
       inkscape:connector-curvature="0"
       id="path64"
       style="fill:#000000;fill-opacity:1;fill-rule:nonzero;stroke:#000000;stroke-width:0.5;stroke-linecap:butt;stroke-linejoin:round;stroke-miterlimit:10;stroke-dasharray:none;stroke-opacity:1"
       d="m 201.6,9 0,4" /><path
       inkscape:connector-curvature="0"
       id="path66"
       style="fill:#000000;fill-opacity:1;fill-rule:nonzero;stroke:#000000;stroke-width:0.5;stroke-linecap:butt;stroke-linejoin:round;stroke-miterlimit:10;stroke-dasharray:none;stroke-opacity:1"
       d="m 201.6,64.8 0,-4" /><text
       id="text68"
       style="font-variant:normal;font-weight:normal;line-height:0%;font-family:'Bitstream Vera Sans';-inkscape-font-specification:BitstreamVeraSans-Roman;writing-mode:lr-tb;fill:#000000;fill-opacity:1;fill-rule:nonzero;stroke:none"
       transform="scale(1,-1)"
       x="195.24062"
       y="2.59375"><tspan
         id="tspan70"
         sodipodi:role="line"
         y="2.59375"
         x="195.24062 201.60062"
         style="font-size:10px;line-height:1.25">20</tspan></text>
<path
       inkscape:connector-curvature="0"
       id="path72"
       style="fill:#000000;fill-opacity:1;fill-rule:nonzero;stroke:#000000;stroke-width:0.5;stroke-linecap:butt;stroke-linejoin:round;stroke-miterlimit:10;stroke-dasharray:none;stroke-opacity:1"
       d="m 313.2,9 0,4" /><path
       inkscape:connector-curvature="0"
       id="path74"
       style="fill:#000000;fill-opacity:1;fill-rule:nonzero;stroke:#000000;stroke-width:0.5;stroke-linecap:butt;stroke-linejoin:round;stroke-miterlimit:10;stroke-dasharray:none;stroke-opacity:1"
       d="m 258.8,64.8 0,-4" /><text
       id="text76"
       style="font-variant:normal;font-weight:normal;line-height:0%;font-family:'Bitstream Vera Sans';-inkscape-font-specification:BitstreamVeraSans-Roman;writing-mode:lr-tb;fill:#000000;fill-opacity:1;fill-rule:nonzero;stroke:none"
       transform="scale(1,-1)"
       x="306.84064"
       y="2.59375"><tspan
         id="tspan78"
         sodipodi:role="line"
         y="2.59375"
         x="306.84064 313.20062"
         style="font-size:10px;line-height:1.25">40</tspan></text>
<path
       inkscape:connector-curvature="0"
       id="path80"
       style="fill:#000000;fill-opacity:1;fill-rule:nonzero;stroke:#000000;stroke-width:0.5;stroke-linecap:butt;stroke-linejoin:round;stroke-miterlimit:10;stroke-dasharray:none;stroke-opacity:1"
       d="m 424.8,9 0,4" /><path
       inkscape:connector-curvature="0"
       id="path82"
       style="fill:#000000;fill-opacity:1;fill-rule:nonzero;stroke:#000000;stroke-width:0.5;stroke-linecap:butt;stroke-linejoin:round;stroke-miterlimit:10;stroke-dasharray:none;stroke-opacity:1"
       d="m 370.4,64.8 0,-4" /><text
       id="text84"
       style="font-variant:normal;font-weight:normal;line-height:0%;font-family:'Bitstream Vera Sans';-inkscape-font-specification:BitstreamVeraSans-Roman;writing-mode:lr-tb;fill:#000000;fill-opacity:1;fill-rule:nonzero;stroke:none"
       transform="scale(1,-1)"
       x="418.44061"
       y="2.59375"><tspan
         id="tspan86"
         sodipodi:role="line"
         y="2.59375"
         x="418.44061 424.80063"
         style="font-size:10px;line-height:1.25">60</tspan></text>
<path
       inkscape:connector-curvature="0"
       id="path88"
       style="fill:#000000;fill-opacity:1;fill-rule:nonzero;stroke:#000000;stroke-width:0.5;stroke-linecap:butt;stroke-linejoin:round;stroke-miterlimit:10;stroke-dasharray:none;stroke-opacity:1"
       d="m 536.4,9 0,4" /><path
       inkscape:connector-curvature="0"
       id="path90"
       style="fill:#000000;fill-opacity:1;fill-rule:nonzero;stroke:#000000;stroke-width:0.5;stroke-linecap:butt;stroke-linejoin:round;stroke-miterlimit:10;stroke-dasharray:none;stroke-opacity:1"
       d="m 501.9,64.8 v -4" /><text
       id="text92"
       style="font-variant:normal;font-weight:normal;line-height:0%;font-family:'Bitstream Vera Sans';-inkscape-font-specification:BitstreamVeraSans-Roman;writing-mode:lr-tb;fill:#000000;fill-opacity:1;fill-rule:nonzero;stroke:none"
       transform="scale(1,-1)"
       x="530.04065"
       y="2.59375"><tspan
         id="tspan94"
         sodipodi:role="line"
         y="2.59375"
         x="530.04065 536.40063"
         style="font-size:10px;line-height:1.25">80</tspan></text>
<path
       inkscape:connector-curvature="0"
       id="path96"
       style="fill:#000000;fill-opacity:1;fill-rule:nonzero;stroke:#000000;stroke-width:0.5;stroke-linecap:butt;stroke-linejoin:round;stroke-miterlimit:10;stroke-dasharray:none;stroke-opacity:1"
       d="m 648,9 0,4" /><path
       inkscape:connector-curvature="0"
       id="path98"
       style="fill:#000000;fill-opacity:1;fill-rule:nonzero;stroke:#000000;stroke-width:0.5;stroke-linecap:butt;stroke-linejoin:round;stroke-miterlimit:10;stroke-dasharray:none;stroke-opacity:1"
       d="m 613.5,64.8 v -4" /><text
       id="text100"
       style="font-variant:normal;font-weight:normal;line-height:0%;font-family:'Bitstream Vera Sans';-inkscape-font-specification:BitstreamVeraSans-Roman;writing-mode:lr-tb;fill:#000000;fill-opacity:1;fill-rule:nonzero;stroke:none"
       transform="scale(1,-1)"
       x="638.46094"
       y="2.59375"><tspan
         id="tspan102"
         sodipodi:role="line"
         y="2.59375"
         x="638.46094 644.82092 651.18097"
         style="font-size:10px;line-height:1.25">100</tspan></text>
<path
       inkscape:connector-curvature="0"
       id="path104"
       style="fill:#000000;fill-opacity:1;fill-rule:nonzero;stroke:#000000;stroke-width:0.5;stroke-linecap:butt;stroke-linejoin:round;stroke-miterlimit:10;stroke-dasharray:none;stroke-opacity:1"
       d="m 90,9 4,0" /><path
       inkscape:connector-curvature="0"
       id="path106"
       style="fill:#000000;fill-opacity:1;fill-rule:nonzero;stroke:#000000;stroke-width:0.5;stroke-linecap:butt;stroke-linejoin:round;stroke-miterlimit:10;stroke-dasharray:none;stroke-opacity:1"
       d="m 648,9 -4,0" /><g
       transform="translate(71.265625,6.2421875)"
       id="g108"><text
         id="text110"
         style="font-variant:normal;font-weight:normal;font-size:10px;line-height:0%;font-family:'Bitstream Vera Sans';-inkscape-font-specification:BitstreamVeraSans-Roman;writing-mode:lr-tb;fill:#000000;fill-opacity:1;fill-rule:nonzero;stroke:none"
         transform="matrix(1,0,0,-1,8.3789063,0)"><tspan
           id="tspan112"
           y="0"
           x="0">3</tspan></text>
<g
         transform="scale(0.01,0.01)"
         id="g114"><g
           id="g116"><g
             clip-path="url(#clipPath120)"
             id="g118"><path
               inkscape:connector-curvature="0"
               id="path124"
               style="fill:#000000;fill-opacity:1;fill-rule:nonzero;stroke:none"
               d="m 106,355 626,0 0,-83 -626,0 0,83" /></g></g></g></g><path
       inkscape:connector-curvature="0"
       id="path126"
       style="fill:#000000;fill-opacity:1;fill-rule:nonzero;stroke:#000000;stroke-width:0.5;stroke-linecap:butt;stroke-linejoin:round;stroke-miterlimit:10;stroke-dasharray:none;stroke-opacity:1"
       d="m 90,18.3 4,0" /><path
       inkscape:connector-curvature="0"
       id="path128"
       style="fill:#000000;fill-opacity:1;fill-rule:nonzero;stroke:#000000;stroke-width:0.5;stroke-linecap:butt;stroke-linejoin:round;stroke-miterlimit:10;stroke-dasharray:none;stroke-opacity:1"
       d="m 648,18.3 -4,0" /><g
       transform="translate(71.265625,15.542188)"
       id="g130"><text
         id="text132"
         style="font-variant:normal;font-weight:normal;font-size:10px;line-height:0%;font-family:'Bitstream Vera Sans';-inkscape-font-specification:BitstreamVeraSans-Roman;writing-mode:lr-tb;fill:#000000;fill-opacity:1;fill-rule:nonzero;stroke:none"
         transform="matrix(1,0,0,-1,8.3789063,0)"><tspan
           id="tspan134"
           y="0"
           x="0">2</tspan></text>
<g
         transform="scale(0.01,0.01)"
         id="g136"><g
           id="g138"><g
             clip-path="url(#clipPath142)"
             id="g140"><path
               inkscape:connector-curvature="0"
               id="path146"
               style="fill:#000000;fill-opacity:1;fill-rule:nonzero;stroke:none"
               d="m 106,355 626,0 0,-83 -626,0 0,83" /></g></g></g></g><path
       inkscape:connector-curvature="0"
       id="path148"
       style="fill:#000000;fill-opacity:1;fill-rule:nonzero;stroke:#000000;stroke-width:0.5;stroke-linecap:butt;stroke-linejoin:round;stroke-miterlimit:10;stroke-dasharray:none;stroke-opacity:1"
       d="m 90,27.6 4,0" /><path
       inkscape:connector-curvature="0"
       id="path150"
       style="fill:#000000;fill-opacity:1;fill-rule:nonzero;stroke:#000000;stroke-width:0.5;stroke-linecap:butt;stroke-linejoin:round;stroke-miterlimit:10;stroke-dasharray:none;stroke-opacity:1"
       d="m 648,27.6 -4,0" /><g
       transform="translate(71.265625,24.842187)"
       id="g152"><text
         id="text154"
         style="font-variant:normal;font-weight:normal;font-size:10px;line-height:0%;font-family:'Bitstream Vera Sans';-inkscape-font-specification:BitstreamVeraSans-Roman;writing-mode:lr-tb;fill:#000000;fill-opacity:1;fill-rule:nonzero;stroke:none"
         transform="matrix(1,0,0,-1,8.3789063,0)"><tspan
           id="tspan156"
           y="0"
           x="0">1</tspan></text>
<g
         transform="scale(0.01,0.01)"
         id="g158"><g
           id="g160"><g
             clip-path="url(#clipPath164)"
             id="g162"><path
               inkscape:connector-curvature="0"
               id="path168"
               style="fill:#000000;fill-opacity:1;fill-rule:nonzero;stroke:none"
               d="m 106,355 626,0 0,-83 -626,0 0,83" /></g></g></g></g><path
       inkscape:connector-curvature="0"
       id="path170"
       style="fill:#000000;fill-opacity:1;fill-rule:nonzero;stroke:#000000;stroke-width:0.5;stroke-linecap:butt;stroke-linejoin:round;stroke-miterlimit:10;stroke-dasharray:none;stroke-opacity:1"
       d="m 90,36.9 4,0" /><path
       inkscape:connector-curvature="0"
       id="path172"
       style="fill:#000000;fill-opacity:1;fill-rule:nonzero;stroke:#000000;stroke-width:0.5;stroke-linecap:butt;stroke-linejoin:round;stroke-miterlimit:10;stroke-dasharray:none;stroke-opacity:1"
       d="m 648,36.9 -4,0" /><text
       id="text174"
       style="font-variant:normal;font-weight:normal;font-size:10px;line-height:0%;font-family:'Bitstream Vera Sans';-inkscape-font-specification:BitstreamVeraSans-Roman;writing-mode:lr-tb;fill:#000000;fill-opacity:1;fill-rule:nonzero;stroke:none"
       transform="scale(1,-1)"
       x="79.640625"
       y="-34.142185"><tspan
         id="tspan176"
         y="-34.142185"
         x="79.640625">0</tspan></text>
<path
       inkscape:connector-curvature="0"
       id="path178"
       style="fill:#000000;fill-opacity:1;fill-rule:nonzero;stroke:#000000;stroke-width:0.5;stroke-linecap:butt;stroke-linejoin:round;stroke-miterlimit:10;stroke-dasharray:none;stroke-opacity:1"
       d="m 90,46.2 4,0" /><path
       inkscape:connector-curvature="0"
       id="path180"
       style="fill:#000000;fill-opacity:1;fill-rule:nonzero;stroke:#000000;stroke-width:0.5;stroke-linecap:butt;stroke-linejoin:round;stroke-miterlimit:10;stroke-dasharray:none;stroke-opacity:1"
       d="m 648,46.2 -4,0" /><text
       id="text182"
       style="font-variant:normal;font-weight:normal;font-size:10px;line-height:0%;font-family:'Bitstream Vera Sans';-inkscape-font-specification:BitstreamVeraSans-Roman;writing-mode:lr-tb;fill:#000000;fill-opacity:1;fill-rule:nonzero;stroke:none"
       transform="scale(1,-1)"
       x="79.640625"
       y="-43.442188"><tspan
         id="tspan184"
         y="-43.442188"
         x="79.640625">1</tspan></text>
<path
       inkscape:connector-curvature="0"
       id="path186"
       style="fill:#000000;fill-opacity:1;fill-rule:nonzero;stroke:#000000;stroke-width:0.5;stroke-linecap:butt;stroke-linejoin:round;stroke-miterlimit:10;stroke-dasharray:none;stroke-opacity:1"
       d="m 90,55.5 4,0" /><path
       inkscape:connector-curvature="0"
       id="path188"
       style="fill:#000000;fill-opacity:1;fill-rule:nonzero;stroke:#000000;stroke-width:0.5;stroke-linecap:butt;stroke-linejoin:round;stroke-miterlimit:10;stroke-dasharray:none;stroke-opacity:1"
       d="m 648,55.5 -4,0" /><text
       id="text190"
       style="font-variant:normal;font-weight:normal;font-size:10px;line-height:0%;font-family:'Bitstream Vera Sans';-inkscape-font-specification:BitstreamVeraSans-Roman;writing-mode:lr-tb;fill:#000000;fill-opacity:1;fill-rule:nonzero;stroke:none"
       transform="scale(1,-1)"
       x="79.640625"
       y="-52.742188"><tspan
         id="tspan192"
         y="-52.742188"
         x="79.640625">2</tspan></text>
<path
       inkscape:connector-curvature="0"
       id="path194"
       style="fill:#000000;fill-opacity:1;fill-rule:nonzero;stroke:#000000;stroke-width:0.5;stroke-linecap:butt;stroke-linejoin:round;stroke-miterlimit:10;stroke-dasharray:none;stroke-opacity:1"
       d="m 90,64.8 4,0" /><path
       inkscape:connector-curvature="0"
       id="path196"
       style="fill:#000000;fill-opacity:1;fill-rule:nonzero;stroke:#000000;stroke-width:0.5;stroke-linecap:butt;stroke-linejoin:round;stroke-miterlimit:10;stroke-dasharray:none;stroke-opacity:1"
       d="m 613.5,64.8 h -4" /><text
       id="text198"
       style="font-variant:normal;font-weight:normal;font-size:10px;line-height:0%;font-family:'Bitstream Vera Sans';-inkscape-font-specification:BitstreamVeraSans-Roman;writing-mode:lr-tb;fill:#000000;fill-opacity:1;fill-rule:nonzero;stroke:none"
       transform="scale(1,-1)"
       x="79.640625"
       y="-62.042187"><tspan
         id="tspan200"
         y="-62.042187"
         x="79.640625">3</tspan></text>
<text
       xml:space="preserve"
       style="font-style:normal;font-variant:normal;font-weight:normal;font-stretch:normal;line-height:0%;font-family:'Latin Modern Roman';-inkscape-font-specification:'Latin Modern Roman, Normal';text-align:start;letter-spacing:0px;word-spacing:0px;writing-mode:lr-tb;text-anchor:start;fill:#000000;fill-opacity:1;stroke:none;stroke-width:1px;stroke-linecap:butt;stroke-linejoin:miter;stroke-opacity:1"
       x="324.06161"
       y="4.0879707"
       id="text4328"
       transform="scale(1,-1)"><tspan
         sodipodi:role="line"
         id="tspan4330"
         x="324.06161"
         y="4.0879707"
         style="font-size:14px;line-height:1.25">Time Samples</tspan></text>
<path
       style="fill:none;fill-rule:evenodd;stroke:#ff0000;stroke-width:1.20000005;stroke-linecap:butt;stroke-linejoin:miter;stroke-miterlimit:4;stroke-dasharray:none;stroke-opacity:1"
       d="m 95.09647,74.48311 c 41.94103,0 42.2225,0 42.2225,0"
       id="path4403"
       inkscape:connector-curvature="0" /><path
       style="fill:none;fill-rule:evenodd;stroke:#00ff00;stroke-width:1.20000005;stroke-linecap:butt;stroke-linejoin:miter;stroke-miterlimit:4;stroke-dasharray:none;stroke-opacity:1"
       d="m 276.92395,74.48311 c 37.70312,0 37.95616,0 37.95616,0"
       id="path4403-3"
       inkscape:connector-curvature="0" /><path
       style="fill:none;fill-rule:evenodd;stroke:#0000ff;stroke-width:1.20000005;stroke-linecap:butt;stroke-linejoin:miter;stroke-miterlimit:4;stroke-dasharray:none;stroke-opacity:1"
       d="m 445.57397,74.48311 c 34.87785,0 35.11193,0 35.11193,0"
       id="path4403-3-6"
       inkscape:connector-curvature="0" /><text
       xml:space="preserve"
       style="font-style:normal;font-variant:normal;font-weight:normal;font-stretch:normal;line-height:0%;font-family:'Latin Modern Roman';-inkscape-font-specification:'Latin Modern Roman, Normal';text-align:start;letter-spacing:0px;word-spacing:0px;writing-mode:lr-tb;text-anchor:start;fill:#000000;fill-opacity:1;stroke:none;stroke-width:1px;stroke-linecap:butt;stroke-linejoin:miter;stroke-opacity:1"
       x="143.98575"
       y="-70.394173"
       id="text4437"
       transform="scale(1,-1)"><tspan
         sodipodi:role="line"
         id="tspan4439"
         x="143.98575"
         y="-70.394173"
         style="font-size:14px;line-height:1.25">reference</tspan></text>
<text
       xml:space="preserve"
       style="font-style:normal;font-variant:normal;font-weight:normal;font-stretch:normal;line-height:0%;font-family:'Latin Modern Roman';-inkscape-font-specification:'Latin Modern Roman, Normal';text-align:start;letter-spacing:0px;word-spacing:0px;writing-mode:lr-tb;text-anchor:start;fill:#000000;fill-opacity:1;stroke:none;stroke-width:1px;stroke-linecap:butt;stroke-linejoin:miter;stroke-opacity:1"
       x="321.14487"
       y="-70.271576"
       id="text4437-7"
       transform="scale(1,-1)"><tspan
         sodipodi:role="line"
         id="tspan4439-5"
         x="321.14487"
         y="-70.271576"
         style="font-size:14px;line-height:1.25">subject</tspan></text>
<text
       xml:space="preserve"
       style="font-style:normal;font-variant:normal;font-weight:normal;font-stretch:normal;line-height:0%;font-family:'Latin Modern Roman';-inkscape-font-specification:'Latin Modern Roman, Normal';text-align:start;letter-spacing:0px;word-spacing:0px;writing-mode:lr-tb;text-anchor:start;fill:#000000;fill-opacity:1;stroke:none;stroke-width:1px;stroke-linecap:butt;stroke-linejoin:miter;stroke-opacity:1"
       x="488.23169"
       y="-70.983109"
       id="text4437-7-3"
       transform="scale(1,-1)"><tspan
         sodipodi:role="line"
         id="tspan4439-5-5"
         x="488.23169"
         y="-70.983109"
         style="font-size:14px;line-height:1.25">subject sunced to reference</tspan></text>
</g></svg>